<svg width="80" height="80" viewBox="0 0 80 80" fill="none" xmlns="http://www.w3.org/2000/svg">
<path fill-rule="evenodd" clip-rule="evenodd" d="M37.9116 77.99L38.9494 78H41.0506L43.1125 77.9735L45.1148 77.9218L47.5204 77.8234L48.9052 77.7472L51.1038 77.5935L52.7543 77.4477L54.2988 77.2829L55.3823 77.1476L56.3975 77.0027L57.3408 76.849L58.2083 76.6867L58.9964 76.5165L59.4757 76.3988L60.1231 76.2165L60.5053 76.0912L60.8466 75.9631C60.9 75.9415 60.9517 75.9199 61.0016 75.8981L61.2796 75.7661L61.514 75.6317C61.8324 75.4284 62 75.2175 62 75.0013C62 74.785 61.8324 74.5741 61.514 74.3708L61.2796 74.2364L61.0016 74.1044L60.6811 73.975L60.3192 73.8483L59.7012 73.6637L58.9964 73.486L58.2083 73.3158L57.3408 73.1536L56.3975 72.9998L55.3823 72.855L54.2988 72.7196L52.7543 72.5548L51.1038 72.409L49.8018 72.3128L47.9871 72.2031L46.0908 72.1157L44.1216 72.0518L42.0884 72.0125L40.5268 72L38.4288 72.0067L36.8875 72.029L34.8852 72.0807L32.4796 72.1791L31.0948 72.2553L28.8962 72.409L27.2457 72.5548L25.7012 72.7196L24.6177 72.855L23.6025 72.9998L22.6592 73.1536L21.7917 73.3158L21.0036 73.486L20.5243 73.6037L19.8769 73.7861L19.4947 73.9113L19.1534 74.0394C19.1 74.061 19.0483 74.0827 18.9984 74.1044L18.7204 74.2364L18.486 74.3708C18.1676 74.5741 18 74.785 18 75.0013C18 75.2175 18.1676 75.4284 18.486 75.6317L18.7204 75.7661L18.9984 75.8981L19.3189 76.0275L19.6808 76.1542L20.2988 76.3388L21.0036 76.5165L21.7917 76.6867L22.6592 76.849L23.6025 77.0027L24.6177 77.1476L25.7012 77.2829L27.2457 77.4477L28.8962 77.5935L30.1982 77.6897L32.0129 77.7994L33.9092 77.8868L35.8784 77.9508L37.9116 77.99Z" fill="#F4F4F4" fill-opacity="0.5"/>
<path fill-rule="evenodd" clip-rule="evenodd" d="M60.8318 14.1197L60.7814 14.1453L59.1344 15.1036L57.7673 15.8804L56.8942 16.3627L56.1513 16.7587L55.7281 16.9755L55.2887 17.1891L54.7403 17.4395L54.1267 17.7042L53.4481 17.9826L53.0843 18.1274L52.308 18.4274L51.4667 18.7418L51.0215 18.9041C50.5244 19.0873 50.2013 19.5561 50.2233 20.0657L50.347 23.1094C50.373 23.7574 50.9402 24.2549 51.6131 24.2205C51.7352 24.2141 51.8556 24.1909 51.9703 24.1501L63.6302 20.0457C64.2657 19.8225 64.5985 19.1473 64.3748 18.5386L64.352 18.4818L62.4568 14.6565C62.1679 14.0741 61.4405 13.8349 60.8318 14.1205V14.1197Z" fill="#2466CA"/>
<path fill-rule="evenodd" clip-rule="evenodd" d="M13.6856 41.5768L16.0479 44.5293L17.2518 45.9975L18.8783 47.9113L20.5819 49.8857C20.8325 50.1755 20.938 50.5675 20.8674 50.9476L20.1689 54.7519C20.0432 55.4345 19.3999 55.884 18.7315 55.7563C18.54 55.7196 18.3607 55.6373 18.2066 55.516L13.7035 51.9863L8.49056 47.9688C7.98841 47.5839 7.85781 46.8822 8.16364 46.3408L8.25774 46.1963L11.7574 41.5968C12.1751 41.0483 12.9491 40.9501 13.4853 41.3764C13.5591 41.4355 13.6264 41.5026 13.6856 41.5768Z" fill="#2466CA"/>
<path fill-rule="evenodd" clip-rule="evenodd" d="M31.5555 70.0002C34.0099 70.0002 36 68.0105 36 65.5558C36 63.101 34.0099 61.1113 31.5555 61.1113C29.1011 61.1113 27.1111 63.101 27.1111 65.5558C27.1111 68.0105 29.1011 70.0002 31.5555 70.0002Z" fill="#F88E2B"/>
<path fill-rule="evenodd" clip-rule="evenodd" d="M31.5555 68.7306C33.309 68.7306 34.73 67.3093 34.73 65.5565C34.73 63.8037 33.309 62.3823 31.5555 62.3823C29.802 62.3823 28.381 63.8037 28.381 65.5565C28.381 67.3093 29.802 68.7306 31.5555 68.7306Z" fill="#FEE64F"/>
<path fill-rule="evenodd" clip-rule="evenodd" d="M60 30.8887C61.7181 30.8887 63.1111 29.4956 63.1111 27.7776C63.1111 26.0596 61.7181 24.6665 60 24.6665C58.282 24.6665 56.8889 26.0596 56.8889 27.7776C56.8889 29.4956 58.282 30.8887 60 30.8887Z" fill="#F88E2B"/>
<path fill-rule="evenodd" clip-rule="evenodd" d="M60.0001 29.9996C61.227 29.9996 62.2223 29.0047 62.2223 27.7777C62.2223 26.5506 61.227 25.5557 60.0001 25.5557C58.7731 25.5557 57.7778 26.5506 57.7778 27.7777C57.7778 29.0047 58.7731 29.9996 60.0001 29.9996Z" fill="#FEE64F"/>
<path d="M40.0004 57.233L35.2366 58.8887L31.9289 55.0437L26.986 54.0657L26.0207 49.0608L22.2222 45.7116L23.8581 40.8887L22.2222 36.0657L26.0207 32.7165L26.986 27.7116L31.9289 26.7337L35.2366 22.8887L40.0004 24.5444L44.7634 22.8887L48.0712 26.7337L53.0148 27.7116L53.9802 32.7165L57.7778 36.0657L56.1427 40.8887L57.7778 45.7116L53.9802 49.0608L53.0148 54.0657L48.0712 55.0437L44.7634 58.8887L40.0004 57.233V57.233Z" fill="#62C983"/>
<path fill-rule="evenodd" clip-rule="evenodd" d="M46.8581 35.3256C47.6657 36.0058 47.7901 37.2371 47.1363 38.0762L40.8221 46.1829L40.7532 46.2635L40.1556 47.0422C39.5731 47.7998 38.5523 47.9943 37.755 47.5215L37.6171 47.4311L33.2574 44.3036C32.4086 43.6945 32.1898 42.489 32.766 41.5998L32.7922 41.5595C33.377 40.6856 34.5326 40.471 35.3727 41.0786L38.3027 43.1998L44.2118 35.6136C44.8656 34.7745 46.0505 34.6446 46.8581 35.3248V35.3256Z" fill="white"/>
<path d="M62.4427 56.2158C64.2209 56.406 64.8985 55.1745 64.8888 54.2403C64.8502 53.5035 64.2958 52.4302 63.29 52.1074C63.1331 52.057 59.4847 50.8887 59.4847 50.8887C60.8004 51.862 60.7625 53.263 60.7625 53.263C60.7625 53.263 60.7923 55.2033 58.3445 54.9372C58.3445 54.9372 59.5572 56.0153 59.4332 57.2516C59.2425 59.1216 56.8889 58.885 56.8889 58.885L60.6 60.0734C62.3614 60.6376 63.4992 59.4844 63.5829 58.4767C63.7084 57.4481 63.1483 56.82 62.4419 56.2151L62.4427 56.2158Z" fill="#78C8F9"/>
<path d="M26.7813 23.6379C27.8178 23.4894 28.8137 22.1759 28.3093 20.7849C27.9689 19.8259 26.735 19.0921 25.731 19.2358C25.4719 19.2733 21.8759 19.7884 21.8759 19.7884C23.5752 20.0974 24.1763 21.4748 24.1763 21.4748C24.1763 21.4748 25.117 23.3561 22.6988 24.2224L26.7805 23.6371L26.7813 23.6379Z" fill="#78C8F9"/>
<path d="M27.3012 18.2304L21.763 19.0242L21.3333 16.1272L26.8715 15.3335L27.3012 18.2304V18.2304Z" fill="#78C8F9"/>
</svg>
